<svg width="12" height="7" viewBox="0 0 12 7" fill="none" xmlns="http://www.w3.org/2000/svg">
<path d="M12.0005 0.898927C11.9974 1.13162 11.8849 1.35794 11.6942 1.55239C11.2974 1.95403 10.9067 2.35885 10.5099 2.76368C9.23798 4.05785 7.9661 5.35521 6.69735 6.64938C6.54423 6.80558 6.38173 6.93308 6.1661 6.98089C5.8411 7.04783 5.57548 6.93308 5.35048 6.70038C5.00673 6.35293 4.66298 6.0023 4.32235 5.65485C2.98485 4.29055 1.65048 2.92625 0.309852 1.56195C0.0598516 1.30694 -0.0588983 1.01687 0.0286017 0.656668C0.184852 0.0223331 0.928602 -0.210363 1.42235 0.219965C1.50673 0.29328 1.58173 0.372971 1.65985 0.452661C3.0786 1.89984 4.49735 3.3502 5.9161 4.80057C5.98798 4.87388 6.01923 4.86432 6.08485 4.79738C7.5286 3.31833 8.9786 1.84246 10.4224 0.363408C10.6255 0.156213 10.8567 0.00320739 11.1567 1.97755e-05C11.6224 -0.00316784 11.9974 0.379346 12.0005 0.898927Z" fill="#72EEAC"/>
</svg>
