<svg width="31" height="31" viewBox="0 0 31 31" fill="none" xmlns="http://www.w3.org/2000/svg">
<path d="M0 15.472C0 6.92315 6.95118 0 15.528 0C24.0769 0 31.028 6.95118 31 15.528C31 24.0769 24.0208 31.028 15.472 31C6.92315 30.972 0 24.0208 0 15.472ZM6.5868 15.5C6.5868 16.7613 6.55877 18.0506 6.64286 19.3119C6.69892 20.349 6.92315 21.33 7.51175 22.1989C8.49277 23.6564 9.92224 24.245 11.5759 24.3291C14.1826 24.4412 16.7893 24.4412 19.4241 24.3291C20.2929 24.3011 21.1338 24.1049 21.9186 23.6564C23.5443 22.7315 24.245 21.2179 24.3291 19.4241C24.4693 16.8174 24.4412 14.2107 24.3291 11.5759C24.3011 10.623 24.0488 9.66998 23.5163 8.85714C22.5633 7.37161 21.1058 6.75497 19.4241 6.67089C16.8174 6.55877 14.1826 6.55877 11.5479 6.67089C10.5669 6.72694 9.61392 6.95118 8.77306 7.51175C7.31555 8.49277 6.75497 9.95027 6.64286 11.632C6.5868 12.9213 6.61483 14.2107 6.5868 15.5Z" fill="#FDFEFE"/>
<path d="M15.5 8.18445C16.8454 8.21248 18.1908 8.15642 19.5642 8.26853C21.4141 8.40868 22.6193 9.55787 22.7034 11.4358C22.8436 14.1266 22.8436 16.8454 22.7034 19.5362C22.5913 21.3861 21.4141 22.5913 19.5642 22.6754C16.8734 22.8156 14.1826 22.8156 11.4919 22.6754C9.58589 22.5633 8.40868 21.3861 8.32459 19.5081C8.18445 16.8174 8.18445 14.0986 8.32459 11.4078C8.43671 9.58589 9.64195 8.43671 11.4358 8.26853C12.7812 8.18445 14.1266 8.24051 15.5 8.18445ZM20.0687 15.5C20.0687 12.9774 18.0226 10.9313 15.5 10.9313C12.9774 10.9313 10.9593 12.9774 10.9593 15.5C10.9593 18.0226 13.0054 20.0687 15.528 20.0687C18.0226 20.0687 20.0687 18.0226 20.0687 15.5ZM21.302 10.7631C21.302 10.1745 20.8535 9.69801 20.2649 9.66998C19.6483 9.64195 19.1718 10.1184 19.1718 10.7071C19.1718 11.2957 19.6202 11.7722 20.2089 11.8002C20.8255 11.8282 21.302 11.3517 21.302 10.7631Z" fill="#FDFEFE"/>
<path d="M18.4711 15.5C18.4711 17.1256 17.1257 18.443 15.5 18.443C13.8463 18.443 12.5289 17.0976 12.5289 15.4439C12.5289 13.8182 13.8743 12.5009 15.5 12.5009C17.1537 12.5289 18.4711 13.8743 18.4711 15.5Z" fill="#FDFEFE"/>
</svg>
