<svg width="32" height="31" viewBox="0 0 32 31" fill="none" xmlns="http://www.w3.org/2000/svg">
<path d="M15.5 31C6.89312 31 0 24.0688 0 15.5C0 6.89312 6.9312 0 15.5381 0C24.1069 0 31.0381 6.9312 31.0381 15.5381C31 24.1069 24.0688 31 15.5 31ZM17.0233 23.1167C17.0995 23.1167 17.1376 23.1167 17.1376 23.0025C17.1376 22.8501 17.1757 22.6978 17.1757 22.5455C17.1757 20.7936 17.1757 19.0418 17.1757 17.2899C17.1757 16.9091 17.1757 16.4902 17.2899 16.1093C17.5184 15.2334 18.3943 14.6241 19.2322 14.6241C20.1843 14.6622 20.7936 15.1953 20.984 16.2236C21.0602 16.6044 21.0602 16.9853 21.0602 17.3661C21.0602 19.156 21.0602 20.9459 21.0602 22.6978C21.0602 23.0405 21.1744 23.1167 21.4791 23.1167C22.4312 23.0786 23.3833 23.0786 24.3735 23.1167C24.6781 23.1167 24.7924 23.0405 24.7924 22.6978C24.7924 20.7555 24.7924 18.7752 24.7924 16.8329C24.7924 16.3378 24.7543 15.8808 24.6781 15.3857C24.183 12.4152 21.5172 10.8919 18.8514 11.9963C18.1658 12.301 17.6708 12.7961 17.1757 13.4816C17.1757 12.9865 17.1757 12.6437 17.1757 12.2629C17.1757 11.9963 17.0995 11.9201 16.8329 11.9201C15.8428 11.9201 14.8145 11.9582 13.8243 11.9201C13.4816 11.9201 13.4435 12.0344 13.4435 12.301C13.4435 15.7285 13.4435 19.1179 13.4435 22.5455C13.4435 22.6978 13.4435 22.812 13.4435 22.9644C13.4435 23.0405 13.4816 23.0786 13.5197 23.0405C14.7383 23.1548 15.8808 23.1548 17.0233 23.1167ZM7.69287 17.5565C7.69287 19.3084 7.69287 21.0221 7.69287 22.774C7.69287 23.0405 7.76904 23.1548 8.03563 23.1548C9.0258 23.1548 10.016 23.1548 11.0442 23.1548C11.3489 23.1548 11.387 23.0786 11.387 22.774C11.387 19.3084 11.387 15.8047 11.387 12.3391C11.387 12.0725 11.3108 11.9963 11.0442 11.9963C10.0541 11.9963 9.06388 12.0344 8.03563 11.9963C7.73096 11.9963 7.65479 12.0725 7.65479 12.3771C7.69287 14.0909 7.69287 15.8428 7.69287 17.5565ZM9.55897 10.473C10.7776 10.473 11.6536 9.7113 11.6536 8.5688C11.6536 7.42629 10.7776 6.58845 9.55897 6.62654C8.34029 6.62654 7.50246 7.42629 7.46437 8.53071C7.46437 9.67322 8.34029 10.473 9.55897 10.473Z" fill="#FDFEFE"/>
<path d="M13.4816 23.0405C13.5197 23.0786 13.5577 23.1167 13.5577 23.1167C13.5196 23.1167 13.4816 23.0786 13.4816 23.0405Z" fill="#FDFEFE"/>
<path d="M17.0233 23.1167C17.0614 23.0786 17.0995 23.0405 17.1376 23.0024C17.1376 23.1167 17.0995 23.1167 17.0233 23.1167Z" fill="#FDFEFE"/>
</svg>
