<svg width="198" height="32" viewBox="0 0 198 32" fill="none" xmlns="http://www.w3.org/2000/svg">
<path d="M32.3651 24.9148H28.7975H25.2005L28.7828 18.7173L17.9774 0.00732422L14.4024 6.2049L17.992 12.4171H17.9774L25.1639 24.9148H17.9774H10.7908L17.9774 12.4171H14.4024H10.8128L0 31.1417H7.18655L10.7762 24.9295L14.3658 31.1417H17.9774H35.9547L32.3651 24.9148Z" fill="#F2F2F2"/>
<path d="M17.9774 17.6697L15.765 21.5084H17.9774H20.1898L17.9774 17.6697Z" fill="#72EEAC"/>
<path d="M42.3354 0.446899H49.6905C52.086 0.446899 53.8808 1.09156 55.0749 2.37357C56.269 3.65557 56.8697 5.53829 56.8697 8.02171V23.523C56.8697 26.0064 56.269 27.8891 55.0749 29.1711C53.8808 30.4531 52.0787 31.0978 49.6905 31.0978H42.3354V0.446899ZM49.6026 26.717C50.3938 26.717 50.9945 26.4826 51.4194 26.0137C51.8443 25.5449 52.0567 24.7903 52.0567 23.7354V7.80194C52.0567 6.75436 51.8443 5.99248 51.4194 5.52363C50.9945 5.05479 50.3938 4.82036 49.6026 4.82036H47.1485V26.717H49.6026Z" fill="white"/>
<path d="M60.1077 0.446899H73.2427V4.82769H64.928V12.93H71.5431V17.3107H64.928V26.7243H73.25V31.1051H60.1077V0.446899Z" fill="white"/>
<path d="M77.0594 29.5447C75.8653 28.2187 75.2646 26.314 75.2646 23.8306V22.0798H79.8212V24.1823C79.8212 26.1675 80.6563 27.1565 82.3193 27.1565C83.1397 27.1565 83.7551 26.9148 84.18 26.4313C84.6049 25.9478 84.8174 25.1712 84.8174 24.087C84.8174 22.805 84.5243 21.6695 83.9383 20.6952C83.3522 19.7209 82.2753 18.5414 80.7003 17.1715C78.715 15.4207 77.3304 13.8383 76.5393 12.4171C75.7481 11.0033 75.3598 9.40625 75.3598 7.61877C75.3598 5.19395 75.9752 3.31856 77.1986 1.9926C78.422 0.666642 80.2021 0 82.539 0C84.8466 0 86.5902 0.666642 87.7696 1.9926C88.9491 3.31856 89.5425 5.22325 89.5425 7.70667V8.97403H84.9858V7.40632C84.9858 6.35874 84.7807 5.58954 84.3705 5.10604C83.9602 4.62254 83.3668 4.38079 82.5757 4.38079C80.9713 4.38079 80.1655 5.36244 80.1655 7.31108C80.1655 8.41727 80.4659 9.45753 81.0666 10.4172C81.6673 11.3842 82.7515 12.549 84.3265 13.9189C86.3411 15.6698 87.7257 17.2594 88.4875 18.6953C89.2494 20.1238 89.623 21.8014 89.623 23.7281C89.623 26.2408 89.0003 28.1675 87.7623 29.5081C86.5242 30.8487 84.7221 31.5226 82.3559 31.5226C80.019 31.5373 78.2535 30.8707 77.0594 29.5447Z" fill="white"/>
<path d="M95.9745 0.446899H102.502L107.491 31.0978H102.67L101.791 25.0101V25.098H96.3188L95.4397 31.0978H90.971L95.9745 0.446899ZM101.227 20.937L99.0806 5.78736H98.9927L96.8902 20.937H101.227Z" fill="white"/>
<path d="M109.813 0.446899H122.552V4.82769H114.626V13.3695H120.845V17.7503H114.626V31.1051H109.813V0.446899Z" fill="white"/>
<path d="M124.875 0.446899H129.695V31.0978H124.875V0.446899Z" fill="white"/>
<path d="M134.816 29.5227C133.563 28.1821 132.933 26.2847 132.933 23.8306V7.714C132.933 5.25988 133.563 3.36251 134.816 2.0219C136.068 0.681292 137.878 0.00732422 140.244 0.00732422C142.61 0.00732422 144.42 0.681292 145.672 2.0219C146.925 3.36251 147.555 5.25988 147.555 7.714V23.8306C147.555 26.2847 146.925 28.1821 145.672 29.5227C144.42 30.8633 142.61 31.5373 140.244 31.5373C137.878 31.5373 136.068 30.8633 134.816 29.5227ZM142.742 24.1383V7.40632C142.742 5.39174 141.907 4.38811 140.244 4.38811C138.581 4.38811 137.746 5.39174 137.746 7.40632V24.131C137.746 26.1456 138.581 27.1492 140.244 27.1492C141.907 27.1565 142.742 26.1529 142.742 24.1383Z" fill="white"/>
<path d="M151.76 29.5447C150.566 28.2187 149.965 26.314 149.965 23.8306V22.0798H154.522V24.1823C154.522 26.1675 155.357 27.1565 157.02 27.1565C157.84 27.1565 158.456 26.9148 158.881 26.4313C159.305 25.9478 159.518 25.1712 159.518 24.087C159.518 22.805 159.225 21.6695 158.639 20.6952C158.053 19.7209 156.976 18.5414 155.401 17.1715C153.416 15.4207 152.031 13.8383 151.24 12.4171C150.449 11.0033 150.06 9.40625 150.06 7.61877C150.06 5.19395 150.676 3.31856 151.899 1.9926C153.123 0.666642 154.903 0 157.24 0C159.547 0 161.291 0.666642 162.47 1.9926C163.65 3.31856 164.243 5.22325 164.243 7.70667V8.97403H159.686V7.40632C159.686 6.35874 159.481 5.58954 159.071 5.10604C158.661 4.62254 158.067 4.38079 157.276 4.38079C155.672 4.38079 154.866 5.36244 154.866 7.31108C154.866 8.41727 155.166 9.45753 155.767 10.4172C156.368 11.3842 157.452 12.549 159.027 13.9189C161.042 15.6698 162.426 17.2594 163.188 18.6953C163.95 20.1238 164.324 21.8014 164.324 23.7281C164.324 26.2408 163.701 28.1675 162.463 29.5081C161.225 30.8487 159.423 31.5226 157.056 31.5226C154.727 31.5373 152.961 30.8707 151.76 29.5447Z" fill="white"/>
<path d="M167.085 26.4532H171.73V31.0978H167.085V26.4532Z" fill="white"/>
<path d="M175.32 0.446899H180.14V31.0978H175.32V0.446899Z" fill="#72EEAC"/>
<path d="M185.261 29.5227C184.008 28.1821 183.378 26.2847 183.378 23.8306V7.714C183.378 5.25988 184.008 3.36251 185.261 2.0219C186.513 0.681292 188.323 0.00732422 190.689 0.00732422C193.055 0.00732422 194.865 0.681292 196.117 2.0219C197.37 3.36251 198 5.25988 198 7.714V23.8306C198 26.2847 197.37 28.1821 196.117 29.5227C194.865 30.8633 193.055 31.5373 190.689 31.5373C188.323 31.5373 186.513 30.8633 185.261 29.5227ZM193.187 24.1383V7.40632C193.187 5.39174 192.352 4.38811 190.689 4.38811C189.026 4.38811 188.191 5.39174 188.191 7.40632V24.131C188.191 26.1456 189.026 27.1492 190.689 27.1492C192.352 27.1565 193.187 26.1529 193.187 24.1383Z" fill="#72EEAC"/>
</svg>
