<svg width="31" height="31" viewBox="0 0 31 31" fill="none" xmlns="http://www.w3.org/2000/svg">
<path d="M11.347 8.42347C11.0665 8.01895 10.7961 7.8238 10.292 7.87259C9.74517 7.92544 9.19225 7.88478 8.60071 7.88478C8.66779 7.98236 8.70641 8.04131 8.7491 8.10229C10.5115 10.6229 12.274 13.1436 14.0343 15.6643C15.7907 18.1788 17.549 20.6913 19.3074 23.2039C19.3643 23.2872 19.3989 23.3949 19.5412 23.3929C20.277 23.3868 21.0129 23.3909 21.7894 23.3909C21.7183 23.2892 21.6776 23.2283 21.6349 23.1673C18.2036 18.254 14.7641 13.3469 11.347 8.42347Z" fill="#FCFCFC"/>
<path d="M15.5 0C6.93993 0 0 6.93993 0 15.5C0 24.0601 6.93993 31 15.5 31C24.0601 31 31 24.0601 31 15.5C31 6.93993 24.0601 0 15.5 0ZM23.5885 24.491C22.0354 24.491 20.4824 24.489 18.9313 24.4951C18.7708 24.4951 18.6813 24.4463 18.5898 24.3162C17.1161 22.1614 15.6362 20.0087 14.1563 17.856C14.0994 17.7747 14.0425 17.6934 13.9754 17.5978C13.3737 18.2971 12.7781 18.9883 12.1825 19.6794C10.8409 21.2406 9.49921 22.8018 8.15757 24.3629C8.09049 24.4422 8.02748 24.4951 7.90957 24.493C7.46236 24.4849 7.01311 24.489 6.56387 24.489C6.53947 24.3995 6.61469 24.369 6.65331 24.3243C8.79587 21.8321 10.9364 19.3379 13.0871 16.8518C13.2497 16.6648 13.27 16.553 13.1216 16.3375C10.971 13.2273 8.83449 10.1111 6.69397 6.99482C6.64315 6.91961 6.59233 6.84439 6.51102 6.72243C6.62892 6.72243 6.70007 6.72243 6.77325 6.72243C8.33443 6.72243 9.89561 6.72446 11.4568 6.71836C11.6255 6.71836 11.7231 6.76918 11.8186 6.90741C13.2233 8.96052 14.634 11.0096 16.0428 13.0586C16.0793 13.1135 16.118 13.1664 16.1769 13.2497C16.2847 13.1257 16.3863 13.0139 16.4859 12.898C18.2077 10.8978 19.9294 8.89751 21.6471 6.89318C21.7549 6.76715 21.8626 6.71633 22.0273 6.72039C22.4399 6.73056 22.8526 6.72446 23.3262 6.72446C23.2409 6.82813 23.186 6.89521 23.1311 6.96026C21.0861 9.33252 19.0472 11.7068 17.0022 14.073C16.8803 14.2132 16.8843 14.2946 16.986 14.443C19.2342 17.7056 21.4764 20.9723 23.7206 24.239C23.7714 24.3121 23.8182 24.3853 23.8893 24.491C23.7633 24.491 23.6759 24.491 23.5885 24.491Z" fill="#FCFCFC"/>
</svg>
